<?xml version="1.0" standalone="no"?>
<!DOCTYPE svg PUBLIC "-//W3C//DTD SVG 20010904//EN"
 "http://www.w3.org/TR/2001/REC-SVG-20010904/DTD/svg10.dtd">
<svg version="1.0" xmlns="http://www.w3.org/2000/svg"
 width="57.000000pt" height="57.000000pt" viewBox="0 0 57.000000 57.000000"
 preserveAspectRatio="xMidYMid meet">

<g transform="translate(0.000000,57.000000) scale(0.100000,-0.100000)"
fill="#000000" stroke="none">
<path d="M210 541 c-78 -24 -146 -88 -175 -164 -36 -94 -5 -220 70 -285 63
-56 93 -67 181 -67 72 0 86 3 129 30 95 59 142 149 132 256 -9 98 -67 177
-161 220 -42 19 -129 24 -176 10z m50 -256 l0 -155 -25 0 c-25 0 -25 0 -25
100 l0 100 -30 -6 c-27 -6 -30 -4 -30 19 0 15 9 31 24 41 14 8 27 25 31 36 4
13 15 20 31 20 l24 0 0 -155z m87 145 c33 -12 63 -56 63 -95 0 -36 -26 -82
-50 -90 -27 -9 -26 -15 16 -69 l36 -47 -38 3 c-33 3 -42 9 -66 48 -15 25 -28
58 -30 75 -3 27 0 30 32 35 29 4 36 9 38 33 4 37 -13 57 -49 57 -26 0 -29 4
-29 30 0 25 4 30 24 30 12 0 36 -5 53 -10z"/>
</g>
</svg>
